<?xml version="1.0" encoding="iso-8859-1"?>
<!-- Generator: Adobe Illustrator 19.0.0, SVG Export Plug-In . SVG Version: 6.00 Build 0)  -->
<svg version="1.1" id="Layer_1" xmlns="http://www.w3.org/2000/svg" xmlns:xlink="http://www.w3.org/1999/xlink" x="0px" y="0px"
	 viewBox="0 0 481.882 481.882" style="enable-background:new 0 0 481.882 481.882;" xml:space="preserve">
<g>
	<g>
		<path d="M102.28,391.604h48.912l-15.637-85.505c-0.502-2.73,0.397-5.533,2.398-7.462c3.217-3.099,4.983-7.227,4.983-11.626
			c0-8.933-7.267-16.196-16.204-16.196c-8.928,0-16.196,7.263-16.196,16.196c0,4.395,1.766,8.527,4.983,11.63
			c1.993,1.933,2.892,4.728,2.39,7.458L102.28,391.604z"/>
	</g>
</g>
<g>
	<g>
		<path d="M104.434,206.669c-8.88,16.589-14.567,34.251-16.933,52.593c-0.92,7.13,2.318,14.092,8.039,18.157
			c3.321-10.761,11.947-19.119,22.894-22.002v-44.73L104.434,206.669z"/>
	</g>
</g>
<g>
	<g>
		<path d="M394.389,259.513c-2.342-18.424-8.045-36.167-16.966-52.838l-7.401,2.125l-125.333,35.975
			c-1.093,0.318-2.223,0.442-3.356,0.473c-0.128,0.004-0.252,0.054-0.38,0.054h-0.001c-0.54-0.001-1.071-0.162-1.611-0.227
			c-0.721-0.086-1.447-0.099-2.156-0.303L135.028,215.45v39.967c14.054,3.7,24.501,16.397,24.501,31.594
			c0,5.327-1.307,10.432-3.7,15.026c30.624,11.134,57.416,18.869,81.236,23.212c2.196,0.401,4.44,0.397,6.668-0.013
			c42.016-7.745,87.582-22.661,139.281-45.594C390.897,276.142,395.475,268.052,394.389,259.513z"/>
	</g>
</g>
<g>
	<g>
		<path d="M240.945,152.141c-9.803,0-15.807,4.72-15.807,7.292c0,2.568,6.003,7.288,15.807,7.288s15.807-4.719,15.807-7.288
			C256.752,156.861,250.748,152.141,240.945,152.141z"/>
	</g>
</g>
<g>
	<g>
		<path d="M240.937,90.278L0,159.433l121.26,34.801c0.741-0.66,1.565-1.233,2.531-1.598l84.887-32.209
			c-0.018-0.337-0.132-0.652-0.132-0.993c0-13.393,14.235-23.885,32.4-23.885c18.165,0,32.4,10.492,32.4,23.885
			c0,13.393-14.235,23.88-32.4,23.88c-9.868,0-18.474-3.162-24.37-8.137l-69.646,26.425l94.016,26.982l138.204-39.672
			c0.008-0.002,0.014-0.001,0.021-0.003l102.712-29.481L240.937,90.278z"/>
	</g>
</g>
<g>
</g>
<g>
</g>
<g>
</g>
<g>
</g>
<g>
</g>
<g>
</g>
<g>
</g>
<g>
</g>
<g>
</g>
<g>
</g>
<g>
</g>
<g>
</g>
<g>
</g>
<g>
</g>
<g>
</g>
</svg>
